<svg id="Capa_1" enable-background="new 0 0 512 512" height="512" viewBox="0 0 512 512" width="512" xmlns="http://www.w3.org/2000/svg"><g><g><path d="m336 276c-.073-.127-79.793-139.638-80-140-.207.362-79.91 139.842-80 140-15.589-10.677-129.761-88.878-146-100l40 240h372l40-240c-12.627 8.649-132.087 90.47-146 100z" fill="#ffda8f"/><g fill="#ff7b79"><circle cx="482" cy="156" r="20"/><ellipse cx="462" cy="296" rx="20" ry="40"/><path d="m401 231 .22.33-65.22 44.67-38.62-67.59 78.62-52.41z"/><circle cx="376" cy="136" r="20"/><circle cx="256" cy="116" r="20"/><ellipse cx="256" cy="296" rx="20" ry="40"/><path d="m214.62 208.41-38.62 67.59-65.13-44.61 25.13-75.39z"/><circle cx="136" cy="136" r="20"/><ellipse cx="50" cy="296" rx="20" ry="40"/><circle cx="30" cy="156" r="20"/></g></g><g><path d="m482 126c-16.542 0-30 13.458-30 30 0 8.634 3.671 16.422 9.528 21.901l-55.106 37.744-17.522-52.565c10.104-4.833 17.1-15.154 17.1-27.08 0-16.542-13.458-30-30-30s-30 13.458-30 30c0 8.55 3.602 16.271 9.36 21.74l-54.615 36.408-29.801-52.152c8.988-5.187 15.056-14.893 15.056-25.996 0-16.542-13.458-30-30-30s-30 13.458-30 30c0 11.103 6.068 20.809 15.056 25.996l-29.801 52.152-54.615-36.408c5.759-5.47 9.36-13.19 9.36-21.74 0-16.542-13.458-30-30-30s-30 13.458-30 30c0 11.926 6.996 22.247 17.099 27.08l-17.521 52.565-55.106-37.744c5.857-5.479 9.528-13.267 9.528-21.901 0-16.542-13.458-30-30-30s-30 13.458-30 30c0 13.522 8.995 24.979 21.314 28.713l11.598 69.605c-7.989 8.947-12.912 24.413-12.912 41.682 0 27.486 11.993 48.446 28.184 49.911l11.952 71.732c.803 4.822 4.975 8.357 9.864 8.357h141c5.523 0 10-4.477 10-10s-4.477-10-10-10h-132.528l-3.333-20h361.721l-3.333 20h-132.527c-5.523 0-10 4.477-10 10s4.477 10 10 10h141c4.889 0 9.061-3.535 9.864-8.357l11.952-71.732c16.191-1.465 28.184-22.425 28.184-49.911 0-17.269-4.923-32.735-12.912-41.682l11.598-69.605c12.319-3.734 21.314-15.191 21.314-28.713 0-16.542-13.458-30-30-30zm-106 0c5.514 0 10 4.486 10 10s-4.486 10-10 10-10-4.486-10-10 4.486-10 10-10zm-5.347 45.583 18.606 55.818-49.959 34.218-28.609-50.064zm-114.653-65.583c5.514 0 10 4.486 10 10s-4.486 10-10 10-10-4.486-10-10 4.486-10 10-10zm-120 20c5.514 0 10 4.486 10 10s-4.486 10-10 10-10-4.486-10-10 4.486-10 10-10zm5.347 45.583 59.961 39.972-28.608 50.064-49.959-34.219zm-111.347-25.583c5.514 0 10 4.486 10 10s-4.486 10-10 10-10-4.486-10-10 4.486-10 10-10zm10 150c0-16.178 5.381-27.06 9.21-29.635 3.062-2.013 10.79 10.822 10.79 29.635 0 16.197-5.394 27.086-9.197 29.626-3.554 2.357-10.803-12.286-10.803-29.626zm31.807 70-4.719-28.318c7.989-8.947 12.912-24.413 12.912-41.682 0-27.486-11.993-48.447-28.184-49.911l-8.093-48.569 126.625 86.73c4.817 3.299 11.435 1.784 14.333-3.29l71.319-124.805 71.317 124.806c2.909 5.092 9.531 6.578 14.333 3.29l126.625-86.729-8.093 48.568c-16.189 1.463-28.182 22.424-28.182 49.91 0 17.258 4.917 32.716 12.913 41.676l-4.72 28.324zm390.193-40c-2.811 0-10-11.616-10-30 0-18.067 7.068-30 10-30 2.684 0 10 11.316 10 30 0 18.067-7.068 30-10 30zm20-160c-5.514 0-10-4.486-10-10s4.486-10 10-10 10 4.486 10 10-4.486 10-10 10z"/><path d="m256 246c-17.103 0-30 21.495-30 50s12.897 50 30 50 30-21.495 30-50-12.897-50-30-50zm0 80c-3.028 0-10-12.165-10-30 0-18.067 7.068-30 10-30 3.028 0 10 12.165 10 30 0 18.067-7.068 30-10 30z"/><circle cx="256" cy="416" r="10"/></g></g></svg>